<svg version="1.1" id="Layer_1" xmlns="http://www.w3.org/2000/svg" x="0" y="0" viewBox="0 0 175 142" xml:space="preserve"><switch><g fill="#010202"><path d="M.5 92L25 51.2 49.5 92H35.6l-7-11.7c-1.7.4-3-.6-3.3-1.7-.6-2.4 3.9-3.6 5.6-2.8-2.2-2.7-5.5-2.7-7.7-1 .4-.8 1.4-1.5 2.6-1.7-2.6-5.3-11.7-2-8.3 5.8.6-.2 2.3-.4 2.7 0-2.6 0-5.1 2.6-5.1 5.4 0 2.4 3.8 7.6 3.8 7.6H.5v.1zm21.3-18.8h-.1c.3.3-.2.8-.5.5v.2c0 .2.3.7.7.7.4 0 .7-.3.7-.7s-.6-.7-.8-.7z" fill-rule="evenodd" clip-rule="evenodd"/><path d="M129.8 89.9h-18.5V70.8h-2.2V92h20.7zM58 88.8h18.4l1.9 3.2h2.5L68.1 70.8h-1.9L53.5 92H56l2-3.2zm9.2-15.3l7.9 13.2H59.3l7.9-13.2zM106 79c0-4.5-3.7-8.2-8.2-8.2H82V92h2.2v-4.9h13.6c.4 0 .8 0 1.2-.1l3.3 5h2.6l-3.7-5.6c2.8-1.3 4.8-4.2 4.8-7.4zm-8.2 6H84.2V73h13.6c3.3 0 6 2.7 6 6s-2.7 6-6 6z"/></g></switch></svg>